<svg width="18" height="15" viewBox="0 0 18 15" fill="none" xmlns="http://www.w3.org/2000/svg">
<path d="M1.81247 12.9359L2.467 12.1799C2.44763 12.1631 2.42762 12.1471 2.40702 12.1319L1.81247 12.9359ZM16.1842 12.9359L15.5897 12.1319C15.5691 12.1471 15.5491 12.1631 15.5297 12.1799L16.1842 12.9359ZM16.2072 10.2471L15.6122 11.0508L16.2072 10.2471ZM3.52203 8.85234L2.60177 8.46103L3.52203 8.85234ZM8.99835 0.142334C7.41295 0.142334 5.89249 0.77213 4.77145 1.89317L6.18566 3.30739C6.93163 2.56142 7.94338 2.14233 8.99835 2.14233V0.142334ZM4.77145 1.89317C3.6504 3.01422 3.02061 4.53468 3.02061 6.12008H5.02061C5.02061 5.06511 5.43969 4.05336 6.18566 3.30739L4.77145 1.89317ZM1.81247 12.9359C1.15795 13.692 1.15884 13.6928 1.15973 13.6935C1.16004 13.6938 1.16094 13.6946 1.16155 13.6951C1.16277 13.6961 1.16401 13.6972 1.16527 13.6983C1.16779 13.7004 1.17038 13.7026 1.17306 13.7048C1.17842 13.7093 1.18409 13.7139 1.19009 13.7188C1.2021 13.7284 1.21543 13.7387 1.23016 13.7497C1.25962 13.7717 1.29468 13.7962 1.33605 13.8228C1.41876 13.876 1.5267 13.9375 1.66568 14.0041C1.94308 14.1369 2.3469 14.2907 2.92631 14.4372C4.08168 14.7293 5.96534 14.9995 8.99835 14.9995V12.9995C6.07396 12.9995 4.36468 12.7379 3.41646 12.4982C2.94408 12.3788 2.66844 12.2668 2.52934 12.2002C2.46006 12.167 2.42548 12.1455 2.41774 12.1405C2.41388 12.138 2.41673 12.1397 2.42529 12.1461C2.42957 12.1493 2.43527 12.1536 2.44227 12.1592C2.44576 12.1621 2.44958 12.1652 2.45371 12.1686C2.45578 12.1703 2.45792 12.1721 2.46013 12.174C2.46124 12.175 2.46237 12.1759 2.46351 12.1769C2.46408 12.1774 2.46496 12.1781 2.46524 12.1784C2.46612 12.1791 2.467 12.1799 1.81247 12.9359ZM3.02061 6.12008C3.02061 7.13828 2.84114 7.89809 2.60177 8.46103L4.44229 9.24365C4.79774 8.40773 5.02061 7.37808 5.02061 6.12008H3.02061ZM1.1945 9.44339C0.414053 10.0212 0.136288 10.9061 0.173795 11.6827C0.210288 12.4384 0.550688 13.2466 1.21793 13.74L2.40702 12.1319C2.31339 12.0627 2.18493 11.865 2.17147 11.5863C2.15902 11.3285 2.25021 11.1503 2.38452 11.0508L1.1945 9.44339ZM8.99835 2.14233C10.0533 2.14233 11.0651 2.56142 11.811 3.30739L13.2252 1.89317C12.1042 0.77213 10.5837 0.142334 8.99835 0.142334V2.14233ZM11.811 3.30739C12.557 4.05336 12.9761 5.06511 12.9761 6.12007H14.9761C14.9761 4.53468 14.3463 3.01422 13.2252 1.89317L11.811 3.30739ZM16.1842 12.9359C15.5297 12.1799 15.5306 12.1791 15.5314 12.1784C15.5317 12.1781 15.5326 12.1774 15.5332 12.1769C15.5343 12.1759 15.5355 12.175 15.5366 12.174C15.5388 12.1721 15.5409 12.1703 15.543 12.1686C15.5471 12.1652 15.5509 12.1621 15.5544 12.1592C15.5614 12.1536 15.5671 12.1493 15.5714 12.1461C15.58 12.1397 15.5828 12.138 15.579 12.1405C15.5712 12.1455 15.5366 12.167 15.4674 12.2002C15.3283 12.2668 15.0526 12.3788 14.5802 12.4982C13.632 12.7379 11.9227 12.9995 8.99835 12.9995V14.9995C12.0314 14.9995 13.915 14.7293 15.0704 14.4372C15.6498 14.2907 16.0536 14.1369 16.331 14.0041C16.47 13.9375 16.5779 13.876 16.6606 13.8228C16.702 13.7962 16.7371 13.7717 16.7665 13.7497C16.7813 13.7387 16.7946 13.7284 16.8066 13.7188C16.8126 13.7139 16.8183 13.7093 16.8236 13.7048C16.8263 13.7026 16.8289 13.7004 16.8314 13.6983C16.8327 13.6972 16.8339 13.6961 16.8351 13.6951C16.8358 13.6946 16.8367 13.6938 16.837 13.6935C16.8379 13.6928 16.8387 13.692 16.1842 12.9359ZM12.9761 6.12007C12.9761 7.37808 13.199 8.40773 13.5544 9.24365L15.3949 8.46103C15.1555 7.89809 14.9761 7.13828 14.9761 6.12007H12.9761ZM15.6122 11.0508C15.7465 11.1503 15.8377 11.3285 15.8252 11.5863C15.8118 11.865 15.6833 12.0627 15.5897 12.1319L16.7788 13.74C17.446 13.2466 17.7864 12.4384 17.8229 11.6827C17.8604 10.9061 17.5826 10.0212 16.8022 9.44339L15.6122 11.0508ZM13.5544 9.24365C13.8223 9.87368 14.3085 10.2448 14.684 10.485C14.8683 10.603 15.0709 10.7162 15.2187 10.8018C15.3815 10.8961 15.5068 10.9728 15.6122 11.0508L16.8022 9.44339C16.6012 9.29459 16.394 9.17126 16.2211 9.0711C16.0332 8.9623 15.8969 8.88673 15.762 8.80041C15.499 8.63215 15.4254 8.53269 15.3949 8.46103L13.5544 9.24365ZM2.60177 8.46103C2.5713 8.53269 2.49765 8.63215 2.23471 8.80041C2.09981 8.88673 1.96349 8.9623 1.77562 9.0711C1.60269 9.17126 1.3955 9.29459 1.1945 9.44339L2.38452 11.0508C2.48994 10.9728 2.61522 10.8961 2.77797 10.8018C2.92579 10.7162 3.12835 10.603 3.31268 10.485C3.68819 10.2448 4.17439 9.87368 4.44229 9.24365L2.60177 8.46103Z" fill="#9896A1"/>
</svg>
